# xmcd
#
# Track frame offsets:
#	150
#	14061
#	33664
#	51837
#	68689
#	84330
#	101885
#	115007
#	130894
#	149818
#	162151
#	180562
#	198919
#	210822
#
# Disc length: 3038 seconds
#
# Revision: 1
# Processed by: cddbd v1.5.1PL2 Copyright (c) Steve Scherf et al.
# Submitted via: audiograbber 1.83.01
#
DISCID=c30bdc0e
DTITLE=Marjorie Kelting and Ronnie Feinberg - Adirondack Rail
DYEAR=2005
DGENRE=Bluegrass
TTITLE0=Mamma's Cry
TTITLE1=Back Home Where You Belong
TTITLE2=Duke
TTITLE3=Adirondack Rail
TTITLE4=Heartbroke, Lonesome, and Blue
TTITLE5=1923
TTITLE6=Loose Talk
TTITLE7=Between Fire and Water
TTITLE8=Gurdlin' The Cane
TTITLE9=Darling This Is Goodbye
TTITLE10=The Water's Edge
TTITLE11=Weathered Gray Stone
TTITLE12=Lonesome, On'ry, and Mean
TTITLE13=Lead Me Lord
EXTD=
EXTT0=
EXTT1=
EXTT2=
EXTT3=
EXTT4=
EXTT5=
EXTT6=
EXTT7=
EXTT8=
EXTT9=
EXTT10=
EXTT11=
EXTT12=
EXTT13=
PLAYORDER=
